<svg width="561" height="355" viewBox="0 0 561 355" fill="none" xmlns="http://www.w3.org/2000/svg">
<rect x="1" y="1" width="559" height="353" rx="29" fill="#07051B" stroke="url(#paint0_linear_3_1165)" stroke-width="2"/>
<mask id="mask0_3_1165" style="mask-type:alpha" maskUnits="userSpaceOnUse" x="0" y="0" width="561" height="355">
<rect width="561" height="355" rx="30" fill="#07051B"/>
</mask>
<g mask="url(#mask0_3_1165)">
<g filter="url(#filter0_f_3_1165)">
<ellipse cx="235.923" cy="-36.2255" rx="196.449" ry="179.191" transform="rotate(-174.066 235.923 -36.2255)" fill="#114F99"/>
</g>
<g filter="url(#filter1_f_3_1165)">
<ellipse cx="527.8" cy="87.4568" rx="187.483" ry="121.35" transform="rotate(-163.525 527.8 87.4568)" fill="#0025CE"/>
</g>
<g filter="url(#filter2_f_3_1165)">
<ellipse cx="575.598" cy="175.5" rx="187.483" ry="121.35" transform="rotate(-163.525 575.598 175.5)" fill="#8000CE"/>
</g>
<g filter="url(#filter3_f_3_1165)">
<path d="M394.21 54.5453C553.327 79.6186 586.932 235.504 643.022 236.996C713.53 238.872 715.196 96.1044 663.882 36.3076C603.397 -34.1765 286.378 37.5535 394.21 54.5453Z" fill="#4959EC"/>
</g>
<g filter="url(#filter4_f_3_1165)">
<path d="M567.005 61.3722C616.142 66.4797 641.957 42.751 645.62 7.51529C653.262 -66.0085 222.227 -137.236 150.169 -82.7486C97.2131 -42.7053 96.8077 21.3894 145.349 49.2089C200.206 80.6475 196.892 85.8984 255.48 71.6437C304.365 59.75 360.424 38.5993 413.695 29.8213C463.557 21.6051 523.358 56.8354 567.005 61.3722Z" fill="#5CCEFF"/>
</g>
</g>
<defs>
<filter id="filter0_f_3_1165" x="-46.6507" y="-301.914" width="565.147" height="531.377" filterUnits="userSpaceOnUse" color-interpolation-filters="sRGB">
<feFlood flood-opacity="0" result="BackgroundImageFix"/>
<feBlend mode="normal" in="SourceGraphic" in2="BackgroundImageFix" result="shape"/>
<feGaussianBlur stdDeviation="43.1439" result="effect1_foregroundBlur_3_1165"/>
</filter>
<filter id="filter1_f_3_1165" x="223.913" y="-161.316" width="607.773" height="497.547" filterUnits="userSpaceOnUse" color-interpolation-filters="sRGB">
<feFlood flood-opacity="0" result="BackgroundImageFix"/>
<feBlend mode="normal" in="SourceGraphic" in2="BackgroundImageFix" result="shape"/>
<feGaussianBlur stdDeviation="60.4015" result="effect1_foregroundBlur_3_1165"/>
</filter>
<filter id="filter2_f_3_1165" x="271.711" y="-73.2735" width="607.773" height="497.547" filterUnits="userSpaceOnUse" color-interpolation-filters="sRGB">
<feFlood flood-opacity="0" result="BackgroundImageFix"/>
<feBlend mode="normal" in="SourceGraphic" in2="BackgroundImageFix" result="shape"/>
<feGaussianBlur stdDeviation="60.4015" result="effect1_foregroundBlur_3_1165"/>
</filter>
<filter id="filter3_f_3_1165" x="279.98" y="-86.1643" width="511.588" height="415.219" filterUnits="userSpaceOnUse" color-interpolation-filters="sRGB">
<feFlood flood-opacity="0" result="BackgroundImageFix"/>
<feBlend mode="normal" in="SourceGraphic" in2="BackgroundImageFix" result="shape"/>
<feGaussianBlur stdDeviation="46.0202" result="effect1_foregroundBlur_3_1165"/>
</filter>
<filter id="filter4_f_3_1165" x="17.632" y="-194.015" width="720.128" height="365.213" filterUnits="userSpaceOnUse" color-interpolation-filters="sRGB">
<feFlood flood-opacity="0" result="BackgroundImageFix"/>
<feBlend mode="normal" in="SourceGraphic" in2="BackgroundImageFix" result="shape"/>
<feGaussianBlur stdDeviation="46.0202" result="effect1_foregroundBlur_3_1165"/>
</filter>
<linearGradient id="paint0_linear_3_1165" x1="2.65186e-06" y1="153.672" x2="561" y2="177.5" gradientUnits="userSpaceOnUse">
<stop stop-color="white" stop-opacity="0.29"/>
<stop offset="1" stop-color="white" stop-opacity="0.12"/>
</linearGradient>
</defs>
</svg>
