<svg width="364" height="234" viewBox="0 0 364 234" fill="none" xmlns="http://www.w3.org/2000/svg">
<g filter="url(#filter0_b_1421_189)">
<rect x="2" y="2" width="360" height="230" rx="15.1928" fill="url(#paint0_linear_1421_189)"/>
<rect x="1.36697" y="1.36697" width="361.266" height="231.266" rx="15.8259" stroke="url(#paint1_radial_1421_189)" stroke-width="1.26607"/>
<rect x="1.36697" y="1.36697" width="361.266" height="231.266" rx="15.8259" stroke="url(#paint2_linear_1421_189)" stroke-opacity="0.4" stroke-width="1.26607"/>
<rect x="1.36697" y="1.36697" width="361.266" height="231.266" rx="15.8259" stroke="url(#paint3_linear_1421_189)" stroke-width="1.26607"/>
</g>
<g clip-path="url(#clip0_1421_189)">
<path d="M185.31 49.7806C185.844 50.8218 186.103 51.9814 186.065 53.1505C186.027 54.3196 185.692 55.4598 185.092 56.4639C184.491 57.4679 183.646 58.3028 182.634 58.8901C181.623 59.4774 180.478 59.7978 179.309 59.8211L112.654 61.47C110.82 61.5122 109.044 60.8239 107.717 59.5566C106.39 58.2893 105.621 56.5468 105.579 54.7125C105.537 52.8781 106.225 51.1022 107.493 49.7753C108.76 48.4485 110.503 47.6794 112.337 47.6373L178.991 45.9883C180.293 45.9704 181.574 46.3158 182.69 46.9857C183.806 47.6556 184.714 48.6235 185.31 49.7806V49.7806Z" fill="black"/>
<path d="M185.31 49.7806C186.058 51.2412 186.261 52.9207 185.882 54.5172L157.111 177.89C156.671 179.646 155.559 181.158 154.014 182.102C152.469 183.046 150.616 183.345 148.853 182.935C147.089 182.526 145.558 181.44 144.587 179.912C143.616 178.384 143.285 176.536 143.663 174.766L172.434 51.3935C172.638 50.51 173.014 49.6754 173.541 48.9375C174.068 48.1996 174.736 47.5729 175.505 47.0934C176.275 46.6139 177.132 46.2909 178.027 46.143C178.921 45.9951 179.836 46.0251 180.719 46.2314C181.7 46.4448 182.621 46.874 183.415 47.4879C184.209 48.1019 184.857 48.8851 185.31 49.7806V49.7806Z" fill="black"/>
<path d="M271.844 172.058C272.569 173.462 272.791 175.071 272.474 176.619C272.156 178.166 271.318 179.558 270.099 180.563C268.88 181.568 267.354 182.124 265.774 182.14C264.195 182.156 262.657 181.631 261.418 180.651L108.23 60.0221C107.516 59.4601 106.919 58.7628 106.475 57.9701C106.03 57.1775 105.745 56.305 105.638 55.4025C105.53 54.4999 105.601 53.585 105.847 52.7099C106.093 51.8349 106.509 51.0168 107.071 50.3025C107.633 49.5881 108.33 48.9915 109.123 48.5466C109.915 48.1018 110.788 47.8174 111.69 47.7097C112.593 47.602 113.508 47.6731 114.383 47.919C115.258 48.165 116.076 48.5808 116.79 49.1429L269.949 169.786C270.745 170.39 271.393 171.167 271.844 172.058V172.058Z" fill="black"/>
<path d="M271.844 172.058C272.34 173.009 272.595 174.067 272.586 175.14C272.603 176.972 271.891 178.736 270.607 180.044C269.323 181.352 267.573 182.096 265.741 182.114L150.437 183.21C149.527 183.223 148.623 183.055 147.777 182.718C146.932 182.381 146.161 181.88 145.51 181.243C144.859 180.607 144.339 179.849 143.982 179.012C143.625 178.174 143.437 177.275 143.428 176.364C143.42 175.454 143.591 174.551 143.933 173.707C144.274 172.863 144.779 172.095 145.419 171.447C146.058 170.799 146.819 170.283 147.658 169.93C148.497 169.577 149.398 169.393 150.308 169.389L265.612 168.294C266.897 168.282 268.161 168.628 269.261 169.293C270.362 169.958 271.256 170.915 271.844 172.058V172.058Z" fill="black"/>
</g>
<defs>
<filter id="filter0_b_1421_189" x="-22.1752" y="-22.1752" width="408.35" height="278.35" filterUnits="userSpaceOnUse" color-interpolation-filters="sRGB">
<feFlood flood-opacity="0" result="BackgroundImageFix"/>
<feGaussianBlur in="BackgroundImageFix" stdDeviation="11.4545"/>
<feComposite in2="SourceAlpha" operator="in" result="effect1_backgroundBlur_1421_189"/>
<feBlend mode="normal" in="SourceGraphic" in2="effect1_backgroundBlur_1421_189" result="shape"/>
</filter>
<linearGradient id="paint0_linear_1421_189" x1="2" y1="2" x2="130.405" y2="324.275" gradientUnits="userSpaceOnUse">
<stop stop-color="#00DF46"/>
<stop offset="1" stop-color="#02EB4B" stop-opacity="0.99"/>
</linearGradient>
<radialGradient id="paint1_radial_1421_189" cx="0" cy="0" r="1" gradientUnits="userSpaceOnUse" gradientTransform="translate(2 2) rotate(32.5741) scale(427.2 269.348)">
<stop stop-color="white" stop-opacity="0.7"/>
<stop offset="0.677083" stop-color="#B691FF" stop-opacity="0.4"/>
<stop offset="1" stop-color="white" stop-opacity="0"/>
</radialGradient>
<linearGradient id="paint2_linear_1421_189" x1="351.951" y1="228.167" x2="316.94" y2="84.1868" gradientUnits="userSpaceOnUse">
<stop stop-color="white" stop-opacity="0.32"/>
<stop offset="0.140625" stop-color="#F9FFF5"/>
<stop offset="1" stop-color="white" stop-opacity="0"/>
</linearGradient>
<linearGradient id="paint3_linear_1421_189" x1="357.631" y1="3.74243" x2="323.401" y2="148.648" gradientUnits="userSpaceOnUse">
<stop stop-color="#161616"/>
<stop offset="1" stop-color="white" stop-opacity="0"/>
</linearGradient>
<clipPath id="clip0_1421_189">
<rect width="192.871" height="128.537" fill="white" transform="translate(170.968 231.589) rotate(-117.16)"/>
</clipPath>
</defs>
</svg>
