<svg width="85" height="30" viewBox="0 0 85 30" fill="none" xmlns="http://www.w3.org/2000/svg">
<g clip-path="url(#clip0_1410_260)">
<path d="M3.46875 2.45172V3.24937C3.51975 4.58438 4.66725 5.65071 6.09525 5.70109H6.53725C7.96525 5.65071 9.11275 4.58438 9.16375 3.24937V2.45172C9.11275 1.11671 7.96525 0.0503778 6.53725 0H6.09525C4.66725 0.0503778 3.51975 1.11671 3.46875 2.45172ZM40.7668 11.8976V22.8212C40.7668 24.7187 41.5062 25.5751 43.8522 25.5751C44.8382 25.5751 45.7987 25.3065 46.3767 25.105V29.5046C45.3907 29.8321 43.8947 29.9916 42.6622 29.9916C37.7322 29.9916 35.4032 27.5567 35.4032 23.3417V1.30143H40.7668V8.31234H46.3767V11.8976H40.7668Z" fill="white"/>
<path fill-rule="evenodd" clip-rule="evenodd" d="M48.1958 18.5391C48.1958 12.0655 52.3268 7.65747 58.9398 7.65747C66.0033 7.65747 69.5053 12.7456 69.1313 20.126H53.7038C53.9843 23.9127 55.7778 25.8355 58.9653 25.8355C61.6598 25.8355 63.0878 24.5508 63.7083 22.7372H68.9528C67.9328 27.1873 64.3713 29.9916 58.9398 29.9916C52.2418 29.9916 48.1958 25.6256 48.1958 19.0681V18.5391ZM58.8973 11.906C55.9563 11.906 54.1968 13.4593 53.7038 16.5492L63.7423 16.4652C63.4533 13.5853 61.8808 11.906 58.8973 11.906Z" fill="white"/>
<path d="M24.6337 7.66587C21.1827 7.66587 19.0577 9.68098 17.9867 11.6625L17.7402 8.31238H12.6232V29.3451H17.9867V17.5231C17.9867 14.0303 19.8567 11.8976 22.6872 11.8976C25.5177 11.8976 26.5632 13.7448 26.5632 16.9522V29.3451H31.9267V15.8103C31.9437 11.1167 29.8867 7.66587 24.6337 7.66587ZM77.4952 11.6541C78.8552 9.01767 81.6347 7.65747 83.7257 7.65747C84.0997 7.65747 84.6862 7.70785 85.0007 7.77502V11.8892C84.4822 11.8388 83.9637 11.8136 83.4452 11.8052C79.6287 11.8052 77.4952 14.0722 77.4952 17.9178V29.3283H72.1317V8.31238H77.3337L77.4952 11.6541ZM0.000732422 8.31238V11.8976H3.63023V29.3451H8.99373V8.31238H0.000732422Z" fill="white"/>
</g>
<defs>
<clipPath id="clip0_1410_260">
<rect width="85" height="30" fill="white" transform="translate(0.000732422)"/>
</clipPath>
</defs>
</svg>
