<svg width="53" height="42" viewBox="0 0 53 42" fill="none" xmlns="http://www.w3.org/2000/svg">
<path d="M51.948 40.6683V40.7743H52.0468C52.0653 40.7746 52.0836 40.77 52.0998 40.7608C52.1062 40.7563 52.1114 40.7502 52.1149 40.7431C52.1184 40.736 52.12 40.7282 52.1196 40.7203C52.12 40.7126 52.1183 40.7049 52.1149 40.698C52.1114 40.691 52.1062 40.6851 52.0998 40.6808C52.0838 40.6712 52.0654 40.6665 52.0468 40.6673H51.948V40.6683ZM52.0478 40.5934C52.0902 40.5908 52.1322 40.6029 52.1665 40.6278C52.1803 40.6391 52.1913 40.6535 52.1985 40.6698C52.2057 40.686 52.209 40.7038 52.2081 40.7216C52.2088 40.7369 52.2061 40.7522 52.2004 40.7664C52.1946 40.7806 52.1859 40.7934 52.1748 40.804C52.1482 40.8271 52.115 40.8409 52.0799 40.8435L52.2124 40.9945H52.1104L51.9885 40.8445H51.949V40.9945H51.8637V40.5936H52.0492L52.0478 40.5934ZM52.0214 41.1328C52.0661 41.1332 52.1104 41.1242 52.1514 41.1063C52.191 41.0893 52.227 41.0649 52.2574 41.0345C52.288 41.0041 52.3123 40.9682 52.3292 40.9285C52.364 40.8446 52.364 40.7502 52.3292 40.6662C52.3121 40.6267 52.2877 40.5908 52.2574 40.5602C52.2269 40.5298 52.191 40.5055 52.1514 40.4884C52.1102 40.4715 52.0659 40.4631 52.0214 40.4635C51.976 40.4631 51.931 40.4716 51.8889 40.4884C51.8484 40.5051 51.8116 40.5295 51.7805 40.5602C51.7336 40.6083 51.7019 40.6691 51.6894 40.7351C51.6768 40.801 51.6839 40.8692 51.7098 40.9312C51.7259 40.971 51.75 41.007 51.7805 41.0372C51.8117 41.0679 51.8485 41.0922 51.8889 41.109C51.9307 41.1269 51.9758 41.1359 52.0214 41.1355M52.0214 40.3671C52.1378 40.367 52.2496 40.4127 52.3327 40.4943C52.3727 40.5335 52.4046 40.5802 52.4265 40.6318C52.4491 40.6848 52.4608 40.7418 52.4608 40.7994C52.4608 40.857 52.4491 40.914 52.4265 40.967C52.4041 41.0183 52.3723 41.0649 52.3327 41.1045C52.292 41.1434 52.2447 41.1749 52.193 41.1972C52.1388 41.2203 52.0803 41.232 52.0214 41.2316C51.9617 41.2321 51.9025 41.2204 51.8475 41.1972C51.7952 41.1754 51.7475 41.1439 51.7068 41.1045C51.6673 41.0635 51.6359 41.0153 51.6144 40.9625C51.5917 40.9095 51.5801 40.8525 51.5801 40.7949C51.5801 40.7373 51.5917 40.6802 51.6144 40.6273C51.6362 40.5757 51.6681 40.529 51.7082 40.4898C51.7483 40.4496 51.7962 40.4181 51.8489 40.397C51.9039 40.3739 51.963 40.3622 52.0227 40.3626M11.4511 38.8189C11.4511 38.0545 11.9519 37.4266 12.7703 37.4266C13.5525 37.4266 14.0803 38.0275 14.0803 38.8189C14.0803 39.6104 13.5525 40.2113 12.7703 40.2113C11.9519 40.2113 11.4511 39.5833 11.4511 38.8189M14.9719 38.8189V36.6437H14.0262V37.1736C13.7263 36.782 13.2714 36.5363 12.6527 36.5363C11.4339 36.5363 10.4774 37.4923 10.4774 38.82C10.4774 40.1477 11.4334 41.1037 12.6527 41.1037C13.2711 41.1037 13.7263 40.8578 14.0262 40.4665V40.9945H14.9708V38.8189H14.9719ZM46.9236 38.8189C46.9236 38.0545 47.4243 37.4266 48.2431 37.4266C49.026 37.4266 49.553 38.0275 49.553 38.8189C49.553 39.6104 49.026 40.2113 48.2431 40.2113C47.4246 40.2113 46.9236 39.5833 46.9236 38.8189ZM50.4454 38.8189V34.8976H49.499V37.1736C49.199 36.782 48.7441 36.5363 48.1254 36.5363C46.9066 36.5363 45.9501 37.4923 45.9501 38.82C45.9501 40.1477 46.9061 41.1037 48.1254 41.1037C48.7441 41.1037 49.199 40.8578 49.499 40.4665V40.9945H50.4454V38.8189ZM26.7084 37.3818C27.3178 37.3818 27.7092 37.7639 27.809 38.4366H25.5527C25.6536 37.8087 26.0349 37.3818 26.7087 37.3818M26.7275 36.534C25.453 36.534 24.5615 37.4613 24.5615 38.8176C24.5615 40.2004 25.4888 41.1013 26.7908 41.1013C27.4458 41.1013 28.0456 40.9378 28.5734 40.4919L28.11 39.7911C27.7455 40.0825 27.2812 40.246 26.8449 40.246C26.2355 40.246 25.6806 39.9638 25.5442 39.1809H28.7732C28.7825 39.0632 28.792 38.9445 28.792 38.8174C28.7825 37.4616 27.9442 36.5337 26.727 36.5337M38.144 38.8174C38.144 38.053 38.6447 37.425 39.4632 37.425C40.2453 37.425 40.7731 38.0259 40.7731 38.8174C40.7731 39.6088 40.2453 40.2097 39.4632 40.2097C38.6447 40.2097 38.1437 39.5818 38.1437 38.8174M41.6644 38.8174V36.6437H40.7193V37.1736C40.4183 36.782 39.9645 36.5363 39.3458 36.5363C38.127 36.5363 37.1705 37.4923 37.1705 38.82C37.1705 40.1477 38.1265 41.1037 39.3458 41.1037C39.9645 41.1037 40.4183 40.8578 40.7193 40.4665V40.9945H41.6647V38.8189L41.6644 38.8174ZM32.8037 38.8174C32.8037 40.1366 33.7221 41.101 35.1237 41.101C35.7787 41.101 36.2151 40.9553 36.687 40.5825L36.2328 39.8181C35.8778 40.0733 35.505 40.2097 35.0935 40.2097C34.3386 40.2004 33.7836 39.6546 33.7836 38.8174C33.7836 37.9801 34.3386 37.4345 35.0935 37.425C35.5039 37.425 35.8767 37.5615 36.2328 37.8166L36.687 37.0522C36.2143 36.6794 35.7779 36.5337 35.1237 36.5337C33.7221 36.5337 32.8037 37.4979 32.8037 38.8174M44.9944 36.5337C44.4489 36.5337 44.0936 36.7888 43.848 37.1709V36.6437H42.9108V40.9921H43.8575V38.5545C43.8575 37.8349 44.1667 37.4351 44.7848 37.4351C44.9873 37.4322 45.1883 37.4693 45.3762 37.5445L45.6677 36.6532C45.4584 36.5708 45.1855 36.5345 44.9939 36.5345M19.647 36.9894C19.1921 36.6895 18.5652 36.5345 17.8737 36.5345C16.772 36.5345 16.0627 37.0625 16.0627 37.9266C16.0627 38.6356 16.5908 39.073 17.5632 39.2095L18.0099 39.2731C18.5284 39.3459 18.7732 39.4824 18.7732 39.728C18.7732 40.0642 18.4288 40.2561 17.782 40.2561C17.127 40.2561 16.6543 40.0468 16.3356 39.8011L15.8913 40.5385C16.4098 40.9206 17.0648 41.1029 17.7741 41.1029C19.03 41.1029 19.7578 40.5115 19.7578 39.6835C19.7578 38.9191 19.185 38.5193 18.2385 38.3828L17.7929 38.3182C17.3835 38.2652 17.0555 38.1828 17.0555 37.8913C17.0555 37.5734 17.3647 37.3821 17.8835 37.3821C18.4386 37.3821 18.9759 37.5914 19.2393 37.7549L19.6486 36.9905L19.647 36.9894ZM31.8486 36.5353C31.303 36.5353 30.9477 36.7904 30.7032 37.1725V36.6437H29.766V40.9921H30.7116V38.5545C30.7116 37.8349 31.0209 37.4351 31.639 37.4351C31.8414 37.4322 32.0424 37.4693 32.2304 37.5445L32.5218 36.6532C32.3125 36.5708 32.0396 36.5345 31.848 36.5345M23.779 36.6437H22.2328V35.3244H21.2768V36.6437H20.3947V37.5079H21.2768V39.4917C21.2768 40.5006 21.6684 41.1016 22.787 41.1016C23.1975 41.1016 23.6701 40.9744 23.9701 40.7653L23.6969 39.9556C23.4147 40.1191 23.1055 40.2015 22.8596 40.2015C22.387 40.2015 22.2328 39.91 22.2328 39.4737V37.5087H23.779V36.6437ZM9.6412 40.9932V38.2641C9.6412 37.2364 8.98622 36.5448 7.93037 36.5355C7.37528 36.5263 6.80271 36.699 6.40183 37.3092C6.1019 36.827 5.62922 36.5355 4.9647 36.5355C4.50023 36.5355 4.04636 36.672 3.69106 37.1812V36.6437H2.74463V40.9921H3.69847V38.581C3.69847 37.8262 4.11711 37.425 4.7636 37.425C5.39155 37.425 5.70923 37.8344 5.70923 38.5715V40.9916H6.6652V38.5805C6.6652 37.8256 7.10158 37.4245 7.72927 37.4245C8.37497 37.4245 8.68311 37.8338 8.68311 38.5709V40.9911L9.6412 40.9932Z" fill="white"/>
<path d="M52.4871 26.5282V25.8923H52.3215L52.1299 26.3287L51.9394 25.8923H51.7733V26.5282H51.8909V26.0492L52.0701 26.4625H52.1919L52.371 26.0481V26.5282H52.4876H52.4871ZM51.4365 26.5282V26.0012H51.6485V25.8939H51.1069V26.0012H51.3189V26.5282H51.4355H51.4365Z" fill="#F79410"/>
<path d="M33.6654 29.2553H19.335V3.50146H33.6657L33.6654 29.2553Z" fill="#FF5F00"/>
<path d="M20.2435 16.3789C20.2435 11.1547 22.6895 6.50101 26.4986 3.50196C23.6153 1.22848 20.0492 -0.00540743 16.3775 1.78143e-05C7.33263 1.78143e-05 0.000732422 7.33297 0.000732422 16.3789C0.000732422 25.4248 7.33263 32.7577 16.3775 32.7577C20.0493 32.7632 23.6155 31.5293 26.4988 29.2558C22.6901 26.2573 20.2435 21.6033 20.2435 16.3789Z" fill="#EB001B"/>
<path d="M52.9987 16.379C52.9987 25.4249 45.6668 32.7578 36.622 32.7578C32.9497 32.7632 29.3831 31.5294 26.4993 29.2559C30.3094 26.2569 32.7554 21.6034 32.7554 16.379C32.7554 11.1546 30.3094 6.50113 26.4993 3.50208C29.3831 1.22867 32.9496 -0.00519027 36.6217 0.000139263C45.6665 0.000139263 52.9984 7.33309 52.9984 16.379" fill="#F79E1B"/>
</svg>
