<svg width="85" height="30" viewBox="0 0 85 30" fill="none" xmlns="http://www.w3.org/2000/svg">
<path d="M5.74896 29.742H0.373994C0.274999 29.742 0.180064 29.7032 0.110064 29.6341C0.0400635 29.565 0.000732422 29.4713 0.000732422 29.3735L0.000732422 10.5444C0.000732422 8.44409 1.04586 7.37552 3.0988 6.82281C5.64309 6.07504 8.28265 5.6904 10.9373 5.68054C17.9919 5.68054 20.754 9.25474 20.754 14.2292V29.3735C20.754 29.4713 20.7147 29.565 20.6447 29.6341C20.5747 29.7032 20.4798 29.742 20.3808 29.742H15.0805C14.9815 29.742 14.8865 29.7032 14.8165 29.6341C14.7465 29.565 14.7072 29.4713 14.7072 29.3735V14.745C14.7072 12.5342 13.7368 10.8023 10.6014 10.8023C9.17261 10.8148 7.75272 11.0257 6.38349 11.4288C6.3109 11.4512 6.247 11.4949 6.2003 11.5542C6.1536 11.6135 6.12636 11.6854 6.12223 11.7604V29.3735C6.12552 29.4228 6.11813 29.4721 6.10054 29.5183C6.08295 29.5645 6.05555 29.6064 6.02021 29.6413C5.98487 29.6762 5.94239 29.7032 5.89561 29.7206C5.84883 29.738 5.79884 29.7453 5.74896 29.742Z" fill="white"/>
<path d="M35.0125 9.91798C31.9518 9.91798 30.0481 11.9814 29.7122 15.2977C29.7069 15.3491 29.7127 15.401 29.7291 15.4501C29.7455 15.4991 29.7722 15.5442 29.8074 15.5824C29.8426 15.6207 29.8855 15.6512 29.9334 15.6719C29.9813 15.6927 30.0331 15.7033 30.0854 15.703H39.9769C40.0759 15.703 40.1708 15.6642 40.2408 15.5951C40.3108 15.526 40.3501 15.4323 40.3501 15.3346C40.2008 12.3131 38.5958 9.91798 35.0125 9.91798ZM40.9847 29.5946C40.952 29.6425 40.9073 29.6812 40.855 29.707C40.8027 29.7328 40.7445 29.7449 40.6861 29.742H35.871C28.6671 29.742 23.7773 25.9467 23.7773 17.8771C23.7773 9.36526 29.0403 5.56995 35.1618 5.56995C41.8432 5.56995 46.2103 9.29156 46.2103 17.2506C46.2103 18.9456 45.4265 19.7563 43.6722 19.7563H30.1228C30.0705 19.756 30.0187 19.7666 29.9708 19.7874C29.9229 19.8082 29.8799 19.8387 29.8447 19.8769C29.8095 19.9151 29.7828 19.9602 29.7664 20.0093C29.75 20.0583 29.7443 20.1102 29.7495 20.1616C30.1974 23.5516 32.8103 24.8781 36.3189 24.8781H43.4855C43.5489 24.8822 43.6103 24.9021 43.6637 24.9361C43.7171 24.9701 43.7608 25.017 43.7907 25.0724C43.8206 25.1277 43.8357 25.1897 43.8346 25.2524C43.8334 25.3152 43.816 25.3766 43.7841 25.4308L40.9847 29.5946Z" fill="white"/>
<path d="M62.0743 29.5578L57.5205 22.2988C57.4891 22.2485 57.4451 22.207 57.3929 22.1782C57.3406 22.1494 57.2817 22.1343 57.2219 22.1343C57.162 22.1343 57.1032 22.1494 57.0509 22.1782C56.9986 22.207 56.9547 22.2485 56.9233 22.2988L52.3322 29.5578C52.3016 29.6104 52.2583 29.6547 52.2063 29.6868C52.1542 29.719 52.0948 29.7379 52.0336 29.742H45.9121C45.8487 29.7379 45.7873 29.718 45.7339 29.684C45.6805 29.65 45.6368 29.603 45.6069 29.5477C45.577 29.4923 45.5619 29.4304 45.563 29.3677C45.5642 29.3049 45.5816 29.2435 45.6135 29.1893L53.1907 17.9876C53.2274 17.9263 53.2468 17.8563 53.2468 17.785C53.2468 17.7137 53.2274 17.6437 53.1907 17.5823L45.7628 6.45433C45.7308 6.40007 45.7135 6.33868 45.7124 6.27596C45.7112 6.21324 45.7263 6.15125 45.7562 6.0959C45.7861 6.04055 45.8298 5.99366 45.8833 5.95966C45.9367 5.92566 45.998 5.90568 46.0614 5.90161H52.2202C52.2815 5.90569 52.3408 5.92464 52.3929 5.95678C52.445 5.98892 52.4882 6.03326 52.5188 6.08585L56.9233 13.0132C56.9567 13.0665 57.0035 13.1105 57.059 13.141C57.1145 13.1715 57.177 13.1876 57.2405 13.1876C57.3041 13.1876 57.3666 13.1715 57.4221 13.141C57.4776 13.1105 57.5243 13.0665 57.5578 13.0132L61.7384 6.08585C61.7689 6.03326 61.8122 5.98892 61.8642 5.95678C61.9163 5.92464 61.9756 5.90569 62.0369 5.90161H68.1584C68.2218 5.90568 68.2832 5.92566 68.3366 5.95966C68.39 5.99366 68.4337 6.04055 68.4636 6.0959C68.4935 6.15125 68.5086 6.21324 68.5074 6.27596C68.5063 6.33868 68.489 6.40007 68.4571 6.45433L61.2904 17.3612C61.2536 17.4226 61.2342 17.4926 61.2342 17.5639C61.2342 17.6352 61.2536 17.7052 61.2904 17.7665L68.8676 29.2261C68.8995 29.2804 68.9169 29.3418 68.918 29.4045C68.9192 29.4672 68.9041 29.5292 68.8742 29.5846C68.8443 29.6399 68.8006 29.6868 68.7472 29.7208C68.6938 29.7548 68.6324 29.7748 68.569 29.7788H62.3356C62.2609 29.742 62.1116 29.6683 62.0743 29.5578Z" fill="white"/>
<path d="M84.9925 28.7472C85.0024 28.7907 85.0035 28.8358 84.9957 28.8798C84.9879 28.9237 84.9714 28.9658 84.9471 29.0034C84.9229 29.0411 84.8913 29.0736 84.8542 29.0992C84.8172 29.1248 84.7754 29.1429 84.7312 29.1525C82.9218 29.669 81.0526 29.9538 79.1696 30C73.608 30 71.0325 27.0153 71.0325 21.1934V1.33255C71.0308 1.24635 71.0597 1.16227 71.1142 1.09495C71.1688 1.02762 71.2455 0.981304 71.3311 0.964078L76.5568 0.00604916C76.6097 -0.00389225 76.6641 -0.00155233 76.7159 0.0128636C76.7677 0.0272796 76.8155 0.0533672 76.8553 0.0891047C76.8951 0.124842 76.9259 0.169249 76.9454 0.218782C76.9649 0.268315 76.9724 0.321627 76.9674 0.374525V5.53319C76.9674 5.63091 77.0067 5.72463 77.0767 5.79373C77.1467 5.86284 77.2416 5.90166 77.3406 5.90166H83.9474C84.0464 5.90166 84.1413 5.94049 84.2113 6.00959C84.2813 6.0787 84.3206 6.17241 84.3206 6.27014V10.1391C84.3206 10.2369 84.2813 10.3306 84.2113 10.3997C84.1413 10.4688 84.0464 10.5076 83.9474 10.5076H77.3406C77.2416 10.5076 77.1467 10.5464 77.0767 10.6155C77.0067 10.6846 76.9674 10.7784 76.9674 10.8761V21.6356C76.9674 23.7728 77.7512 25.2835 80.2148 25.2835C81.465 25.2239 82.7045 25.0261 83.9101 24.6939C83.9591 24.6832 84.0099 24.6824 84.0593 24.6916C84.1087 24.7007 84.1558 24.7196 84.1976 24.7471C84.2394 24.7747 84.2752 24.8103 84.3027 24.8518C84.3303 24.8933 84.3491 24.9399 84.358 24.9887L84.9925 28.7472Z" fill="white"/>
</svg>
