<svg width="38" height="30" viewBox="0 0 38 29" fill="none" xmlns="http://www.w3.org/2000/svg">
<g clip-path="url(#clip0_1404_238)">
<path d="M36.7838 19.7906C36.7838 20.9465 35.3726 22.3655 34.225 22.3655H33.1794C33.1794 15.2965 33.1794 7.37165 33.1794 5.96501C33.1791 5.92345 33.1871 5.88223 33.2031 5.84371C33.2191 5.8052 33.2427 5.77013 33.2726 5.74052C33.3024 5.71091 33.338 5.68733 33.3772 5.67114C33.4164 5.65494 33.4584 5.64645 33.501 5.64614H36.4598C36.5027 5.64655 36.5451 5.65523 36.5846 5.67166C36.6241 5.6881 36.6598 5.71197 36.6898 5.74192C36.7199 5.77187 36.7435 5.80731 36.7595 5.8462C36.7755 5.8851 36.7835 5.92669 36.783 5.9686L36.7838 19.7906ZM31.962 24.8468C31.962 25.5782 31.5947 26.8027 29.142 26.8027C24.3867 26.8027 21.4695 23.1643 21.4695 20.5547C21.4695 20.5547 21.4642 12.1169 21.4642 5.9682C21.4638 5.92656 21.4718 5.88525 21.4879 5.84666C21.5039 5.80806 21.5276 5.77294 21.5575 5.74331C21.5875 5.71368 21.6231 5.69012 21.6624 5.67399C21.7018 5.65786 21.7439 5.64948 21.7866 5.64932H24.7491C24.792 5.64969 24.8344 5.65832 24.874 5.67474C24.9135 5.69115 24.9493 5.71502 24.9794 5.74497C25.0094 5.77493 25.0332 5.81038 25.0492 5.8493C25.0652 5.88822 25.0732 5.92984 25.0727 5.97179V19.5284C25.0727 21.7684 26.888 23.5852 29.1256 23.5852H31.9653L31.962 24.8468ZM36.6851 4.43003H33.2765C32.5521 4.43003 31.9616 5.02114 31.9616 5.74539V22.3667H29.122C27.5552 22.3667 26.2852 21.0952 26.2852 19.5272V5.74618C26.2852 5.01955 25.6959 4.43082 24.9698 4.43082H21.5597C20.8336 4.43082 20.2443 5.02114 20.2431 5.74618C20.2431 11.7558 20.2484 20.5551 20.2484 20.5551C20.2484 25.1788 25.4277 28.0204 29.1411 28.0204C31.6306 28.0204 33.1786 26.8019 33.1786 24.8388V23.5852H34.2242C36.0607 23.5852 38 21.6357 38 19.7914V5.74618C38 5.01955 37.4123 4.43082 36.6851 4.43082V4.43003ZM16.5407 22.0726C16.541 22.1142 16.533 22.1555 16.5169 22.1941C16.5009 22.2326 16.4772 22.2677 16.4473 22.2973C16.4173 22.327 16.3817 22.3505 16.3424 22.3667C16.3031 22.3828 16.2609 22.3912 16.2183 22.3914H13.2558C13.2129 22.3911 13.1705 22.3825 13.131 22.3661C13.0915 22.3497 13.0557 22.3259 13.0257 22.2959C12.9956 22.266 12.9719 22.2306 12.9558 22.1918C12.9398 22.1529 12.9318 22.1113 12.9322 22.0694V8.51043C12.9322 6.27073 11.1165 4.45354 8.87926 4.45354H6.04004V3.19359C6.04004 2.46416 6.40734 1.23769 8.86008 1.23769C13.6154 1.23769 16.535 4.87645 16.535 7.48604C16.535 7.48604 16.5403 15.9649 16.5403 22.0746L16.5407 22.0726ZM1.5398 22.3942C1.45342 22.3926 1.37117 22.3578 1.31084 22.2973C1.25052 22.2369 1.21695 22.1558 1.21739 22.0714V8.25094C1.21739 7.09502 2.62864 5.67364 3.77584 5.67364H4.82142C4.82142 15.7979 4.82142 20.9768 4.82142 22.071C4.8224 22.1555 4.78899 22.2369 4.72854 22.2974C4.66809 22.3578 4.58553 22.3924 4.49901 22.3934H1.54021L1.5398 22.3942ZM17.7504 7.48684C17.7528 2.86037 12.5723 0.0203857 8.85967 0.0203857C6.3702 0.0203857 4.82142 1.23889 4.82142 3.20196V4.45514H3.77625C1.93975 4.45514 0 6.40506 0 8.24935V22.2942C0 23.0212 0.589312 23.6096 1.31493 23.6096H4.72306C4.74429 23.6096 4.76388 23.604 4.78346 23.604C5.48011 23.5713 6.038 22.9985 6.038 22.2926V5.67125H8.87804C10.4444 5.67125 11.7148 6.94236 11.7148 8.51043V22.2942C11.7148 23.0212 12.3041 23.6096 13.0297 23.6096H16.4403C17.1664 23.6096 17.7553 23.0212 17.7553 22.2942C17.7581 16.1726 17.7512 7.48564 17.7512 7.48564L17.7504 7.48684Z" fill="white"/>
</g>
<defs>
<clipPath id="clip0_1404_238">
<rect width="38" height="28" fill="white" transform="translate(0 0.0203857)"/>
</clipPath>
</defs>
</svg>
